# xmcd
#
# Track frame offsets: 
#        150
#        24273
#        45349
#        70729
#        89062
#        109212
#        140756
#        163359
#        188141
#        205335
#        224401
#
# Disc length: 3423 seconds
#
# Revision: 1
# Processed by: cddbd v1.5.2PL0 Copyright (c) Steve Scherf et al.
# Submitted via: ExactAudioCopyFreeDBPlugin 1.0
#
DISCID=a50d5d0b
DTITLE=Lucky Peterson - The Son Of A Bluesman
DYEAR=2014
DGENRE=Blues
TTITLE0=Blues In My Blood
TTITLE1=Funky Broadway
TTITLE2=Nana Jarnell
TTITLE3=I Pity The Fool
TTITLE4=Boogie-Woogie Blues Joint Party
TTITLE5=I'm Still Here
TTITLE6=The Son Of A Bluesman
TTITLE7=I Can See Clearly Now
TTITLE8=Joy
TTITLE9=You Lucky Dog
TTITLE10=I'm Still Here (Gospel)
EXTD=
EXTT0=
EXTT1=
EXTT2=
EXTT3=
EXTT4=
EXTT5=
EXTT6=
EXTT7=
EXTT8=
EXTT9=
EXTT10=
PLAYORDER=
